<?xml version="1.0" encoding="UTF-8"?>
<svg xmlns="http://www.w3.org/2000/svg" viewBox="0 0 1080 1080">
  <defs>
    <style>
      .cls-1 {
        fill: #272724;
      }

      .cls-2 {
        fill: #4d5a63;
      }

      .cls-3 {
        fill: #39cff5;
      }

      .cls-4 {
        fill: #53bdf5;
      }

      .cls-5 {
        fill: #009bed;
      }

      .cls-6 {
        fill: #29b8ff;
      }
    </style>
  </defs>
  <g id="_图标重绘" data-name="图标重绘">
    <rect class="cls-1" x="181.29" y="212.51" width="717.45" height="743.49" rx="97.02" ry="97.02"/>
    <path class="cls-2" d="M660.1,881.66H251.29c-38.5,0-70-31.5-70-70v-502.13c0-53.36,43.66-97.02,97.02-97.02h523.4c53.36,0,97.02,43.66,97.02,97.02v337.06c0,8.59-2.66,16.1-10.38,23.74-47.66,47.15-152.6,151.66-201.19,199.83-6.15,6.09-17.34,11.49-27.06,11.49Z"/>
    <path class="cls-5" d="M685.89,871.36l-.17-92.19c0-53.36,43.66-97.02,97.02-97.02l94.13-.43-190.97,189.64Z"/>
    <rect class="cls-5" x="353.46" y="181.49" width="373.28" height="100.09" rx="23.87" ry="23.87"/>
    <path class="cls-4" d="M472.74,181.49c0-35.01,28.65-59.57,63.66-59.57h6.6c35.01,0,63.66,24.56,63.66,59.57h-133.91Z"/>
  </g>
  <g id="_图层_5" data-name="图层 5">
    <g>
      <path class="cls-3" d="M404.07,555.28c-1,113.73-81.98,210.67-196.09,223.55l42.9-16.89c110.05-53.91,126.58-178.72,102.7-288.14l1.37-1.9c220.16-55.08,430.67-167.29,592.33-326.49-3.01,26.68-14.3,55-25.13,79.77-37.45,85.61-99.27,167.76-173.12,224.98-98.14,76.03-220.95,110.79-344.96,105.11Z"/>
      <path class="cls-4" d="M786.49,480.79c-20.41,63.24-75.11,113.89-132.04,145.44-70.64,39.14-155.03,54.37-232.72,27.11-8.03,45.6-57.42,80.31-95.52,101.59-7.92,4.42-17.31,9.93-26.08,12.14,66.03-45.43,110.09-115.35,117.68-196.09,2.94,1.46,5.36,1.99,8.69,2.07,126.64,3.12,247.48-38.63,359.97-92.27Z"/>
      <path class="cls-5" d="M615.88,702.4c-53.38,43.87-134.11,58.35-197.09,26.2l-48.05,20.82,67.64-74.05c53.12,27.37,118.78,26.58,177.5,27.02Z"/>
    </g>
    <path class="cls-6" d="M705.33,432.15c-91.59,62.02-223.87,105.01-313.23,110.04-4.02,50.95-27.22,108.33-55.2,151.1-20.3,31.04-47.15,58.95-81.12,73.84-4.24,1.86-8.57,3.49-12.97,4.93,95.41-26.68,160.35-115,161.25-216.77,124.01,5.68,246.82-29.08,344.96-105.11,73.86-57.22,135.67-139.36,173.12-224.98,9.19-21,18.68-44.56,23.2-67.51l1.93-12.26c-6.26,15.65-64.47,108.41-86.32,132.95-53.14,59.69-64.05,91.75-155.63,153.77Z"/>
  </g>
</svg>